<?xml version="1.0" standalone="no"?>
<!DOCTYPE svg PUBLIC "-//W3C//DTD SVG 20010904//EN"
 "http://www.w3.org/TR/2001/REC-SVG-20010904/DTD/svg10.dtd">
<svg version="1.0" xmlns="http://www.w3.org/2000/svg"
 width="506.000000pt" height="49.000000pt" viewBox="0 0 506.000000 49.000000"
 preserveAspectRatio="xMidYMid meet">

<g transform="translate(0.000000,49.000000) scale(0.100000,-0.100000)"
fill="#000000" stroke="none">
<path d="M367 470 c-68 -12 -185 -48 -230 -71 -176 -90 -164 -227 28 -315 117
-53 207 -69 395 -69 148 0 175 3 262 27 202 56 291 129 274 223 -15 77 -109
144 -262 185 -62 17 -115 22 -249 25 -93 2 -192 0 -218 -5z m201 -72 c20 -20
14 -44 -20 -78 l-33 -33 36 6 c33 5 36 3 32 -14 -4 -15 -14 -19 -54 -19 -27 0
-49 3 -49 6 0 4 14 22 30 41 17 18 30 43 30 54 0 18 -5 21 -30 17 -16 -3 -30
-2 -30 2 0 14 26 30 50 30 14 0 31 -5 38 -12z m-132 -53 c4 -8 3 -23 0 -32 -6
-14 -8 -14 -22 5 -11 15 -26 22 -50 22 -19 0 -34 -2 -34 -5 0 -3 12 -24 27
-46 l26 -40 -43 -44 -44 -45 52 0 c41 0 53 4 62 20 16 30 31 25 24 -7 -12 -48
-21 -53 -105 -53 -43 0 -80 4 -83 8 -2 4 17 32 44 62 l48 55 -34 46 c-19 26
-34 52 -34 58 0 7 28 11 80 11 62 0 82 -3 86 -15z m434 6 c0 -5 -6 -11 -14
-14 -17 -7 -42 -190 -26 -195 23 -8 -3 -22 -41 -22 -35 0 -53 13 -29 22 5 2
14 37 20 78 6 41 13 85 16 98 4 20 1 22 -45 22 -50 0 -50 0 -58 -37 -4 -21 -7
-71 -8 -110 l0 -73 -37 0 c-39 0 -57 14 -35 27 18 10 43 186 28 191 -6 2 -11
8 -11 13 0 5 54 9 120 9 66 0 120 -4 120 -9z"/>
<path d="M2390 311 l0 -40 -35 6 c-42 7 -65 -9 -65 -47 0 -38 28 -59 73 -57
l37 2 0 88 c0 48 -2 87 -5 87 -3 0 -5 -18 -5 -39z m-10 -61 c12 -22 0 -55 -22
-63 -17 -6 -44 9 -52 28 -17 45 52 77 74 35z"/>
<path d="M2874 260 c0 -52 1 -74 3 -47 2 26 2 68 0 95 -2 26 -3 4 -3 -48z"/>
<path d="M1300 326 c-21 -27 -8 -60 33 -79 41 -19 48 -41 17 -57 -14 -8 -26
-8 -41 1 -17 9 -20 8 -17 -3 7 -20 63 -22 82 -2 26 26 16 57 -26 76 -46 22
-52 32 -32 52 10 11 24 14 41 10 18 -5 24 -3 19 5 -10 16 -61 14 -76 -3z"/>
<path d="M1500 326 c-21 -27 -8 -60 33 -79 41 -19 48 -41 17 -57 -14 -8 -26
-8 -41 1 -17 9 -20 8 -17 -3 7 -20 63 -22 82 -2 26 26 16 57 -26 76 -46 22
-52 32 -32 52 10 11 24 14 41 10 18 -5 24 -3 19 5 -10 16 -61 14 -76 -3z"/>
<path d="M1760 255 c0 -50 4 -85 10 -85 6 0 10 18 10 40 0 39 1 40 33 40 39 0
57 15 57 47 0 26 -32 43 -81 43 l-29 0 0 -85z m88 41 c5 -22 -13 -36 -45 -36
-19 0 -23 5 -23 31 0 28 2 30 32 27 23 -2 34 -9 36 -22z"/>
<path d="M1910 272 c0 -5 14 -7 30 -4 44 6 40 -24 -4 -32 -37 -7 -53 -31 -35
-52 13 -16 45 -19 53 -5 4 5 -3 7 -14 4 -24 -6 -40 25 -19 38 28 17 46 9 55
-23 l8 -33 4 43 c2 24 -2 50 -9 58 -12 15 -69 20 -69 6z"/>
<path d="M2020 193 c0 -49 4 -83 10 -83 6 0 10 19 10 41 0 36 2 40 15 29 42
-35 101 29 70 76 -13 20 -23 24 -60 22 l-45 -1 0 -84z m88 65 c34 -34 -6 -90
-48 -68 -35 19 -20 80 20 80 9 0 21 -5 28 -12z"/>
<path d="M2180 272 c0 -5 14 -7 30 -4 44 6 40 -24 -4 -32 -37 -7 -53 -31 -35
-52 13 -16 45 -19 53 -5 4 5 -3 7 -14 4 -24 -6 -40 25 -19 38 28 17 46 9 55
-23 l8 -33 4 43 c2 24 -2 50 -9 58 -12 15 -69 20 -69 6z"/>
<path d="M2452 268 c-18 -18 -14 -63 6 -81 50 -46 114 13 82 74 -12 22 -68 27
-88 7z m78 -17 c18 -35 -18 -79 -54 -65 -22 8 -31 51 -16 69 18 21 57 19 70
-4z"/>
<path d="M2580 193 c0 -49 4 -83 10 -83 6 0 10 19 10 41 0 36 2 40 15 29 42
-35 101 29 70 76 -13 20 -23 24 -60 22 l-45 -1 0 -84z m88 65 c34 -34 -6 -90
-48 -68 -35 19 -20 80 20 80 9 0 21 -5 28 -12z"/>
<path d="M2731 240 c0 -26 4 -51 11 -58 15 -15 45 -15 54 0 5 7 2 9 -8 6 -25
-10 -41 8 -48 54 l-7 43 -2 -45z"/>
<path d="M2808 238 c-3 -24 -1 -50 3 -58 5 -9 9 7 9 43 0 67 -6 75 -12 15z"/>
<path d="M2932 268 c-18 -18 -14 -63 6 -81 50 -46 114 13 82 74 -12 22 -68 27
-88 7z m78 -17 c18 -35 -18 -79 -54 -65 -22 8 -31 51 -16 69 18 21 57 19 70
-4z"/>
<path d="M3063 264 c-7 -18 20 -44 45 -44 8 0 12 -8 10 -17 -3 -13 -12 -17
-32 -15 -17 2 -25 -1 -21 -7 8 -15 48 -14 63 1 20 20 13 39 -18 49 -38 14 -42
44 -5 37 14 -3 25 -1 25 3 0 17 -60 10 -67 -7z"/>
<path d="M1425 180 c4 -6 11 -8 16 -5 14 9 11 15 -7 15 -8 0 -12 -5 -9 -10z"/>
<path d="M1625 180 c4 -6 11 -8 16 -5 14 9 11 15 -7 15 -8 0 -12 -5 -9 -10z"/>
</g>
</svg>
